<svg width="29" height="28" viewBox="0 0 29 28" fill="none" xmlns="http://www.w3.org/2000/svg">
<path fill-rule="evenodd" clip-rule="evenodd" d="M6.87655 0.666736C8.36588 0.686736 9.42722 1.80274 10.7699 3.21474C11.1019 3.56274 11.4605 3.94274 11.8619 4.34274C13.8072 6.2894 13.2539 7.8774 12.8072 9.15207C12.3219 10.5427 11.9019 11.7427 14.4165 14.2574C16.9312 16.7721 18.1299 16.3521 19.5192 15.8627C20.7952 15.4174 22.3792 14.8601 24.3286 16.8067C24.7246 17.2027 25.0979 17.5574 25.4445 17.8867C26.8619 19.2361 27.9819 20.3014 28.0008 21.7947C28.0152 23.0667 27.2419 24.3654 25.3326 26.2747L24.4872 25.7014L25.2032 26.3987C24.7806 26.8321 23.6566 27.9867 21.4552 28.0001H21.4152C18.0926 28.0001 13.7605 25.3547 8.53922 20.1347C3.29655 14.8934 0.647216 10.5481 0.667103 7.21874C0.679216 5.01874 1.83255 3.89207 2.26588 3.4694L2.30287 3.42901L2.39255 3.33874C4.30588 1.4254 5.62055 0.638736 6.87655 0.666736ZM6.85122 2.66674H6.84055C6.2418 2.66674 5.3325 3.26674 4.06432 4.4986L3.80966 4.74868L3.81255 4.74807C3.81255 4.74807 3.79079 4.77303 3.7537 4.81085L3.66455 4.90007C3.34188 5.2134 2.67388 5.8654 2.66715 7.2294C2.65655 9.1374 3.91122 12.6801 9.95255 18.7201C15.9645 24.7307 19.5019 26.0001 21.4152 26.0001H21.4432C22.8072 25.9921 23.4579 25.3241 23.7712 25.0027C23.8659 24.9054 23.9432 24.8321 23.9979 24.7881C25.3272 23.4507 26.0072 22.4574 26.0006 21.8187C25.9925 21.1681 25.1832 20.4001 24.0646 19.3347C23.7086 18.9974 23.3219 18.6281 22.9139 18.2201C21.8552 17.1654 21.3339 17.3454 20.1805 17.7507C18.5872 18.3094 16.4045 19.0747 13.0032 15.6707C9.60055 12.2694 10.3632 10.0867 10.9192 8.49207C11.3219 7.34007 11.5059 6.81607 10.4485 5.7574C10.0352 5.34407 9.66322 4.95207 9.32055 4.59207C8.26188 3.48007 7.49788 2.67607 6.85122 2.66674ZM18.3287 5.41007C21.1033 5.94874 23.246 8.09007 23.786 10.8661C23.8913 11.4101 23.538 11.9341 22.9967 12.0394C22.9314 12.0514 22.8673 12.0581 22.8034 12.0581C22.334 12.0581 21.9167 11.7274 21.8234 11.2501C21.4394 9.27674 19.918 7.7554 17.9473 7.37274C17.4047 7.2674 17.0514 6.7434 17.1567 6.20074C17.262 5.65807 17.7954 5.3034 18.3287 5.41007ZM18.2488 0.674336C23.6861 1.27834 27.9088 5.49567 28.5182 10.9317C28.5795 11.481 28.1848 11.9757 27.6368 12.037C27.5995 12.041 27.5608 12.0437 27.5235 12.0437C27.0208 12.0437 26.5888 11.6663 26.5315 11.1557C26.0262 6.65434 22.5302 3.161 18.0275 2.661C17.4795 2.59967 17.0835 2.10634 17.1448 1.557C17.2048 1.009 17.6942 0.605002 18.2488 0.674336Z" fill="white"/>
</svg>
