<svg width="23" height="27" viewBox="0 0 23 27" fill="none" xmlns="http://www.w3.org/2000/svg">
<path fill-rule="evenodd" clip-rule="evenodd" d="M11.8325 0.666992C17.8979 0.666992 22.8325 5.63899 22.8325 11.751C22.8325 19.2643 14.2245 26.667 11.8325 26.667C9.44052 26.667 0.83252 19.2643 0.83252 11.751C0.83252 5.63899 5.76719 0.666992 11.8325 0.666992ZM11.8325 2.66699C6.86985 2.66699 2.83252 6.74299 2.83252 11.751C2.83252 18.123 10.3312 24.331 11.8325 24.6617C13.3339 24.3297 20.8325 18.1217 20.8325 11.751C20.8325 6.74299 16.7952 2.66699 11.8325 2.66699ZM11.8339 7.33366C14.2232 7.33366 16.1672 9.27766 16.1672 11.6683C16.1672 14.0577 14.2232 16.0003 11.8339 16.0003C9.44452 16.0003 7.50052 14.0577 7.50052 11.6683C7.50052 9.27766 9.44452 7.33366 11.8339 7.33366ZM11.8339 9.33366C10.5472 9.33366 9.50052 10.3803 9.50052 11.6683C9.50052 12.955 10.5472 14.0003 11.8339 14.0003C13.1205 14.0003 14.1672 12.955 14.1672 11.6683C14.1672 10.3803 13.1205 9.33366 11.8339 9.33366Z" fill="white"/>
</svg>
