<svg width="64" height="64" viewBox="0 0 64 64" fill="none" xmlns="http://www.w3.org/2000/svg">
<circle cx="32" cy="32" r="32" fill="white" fill-opacity="0.11"/>
<circle cx="31.5" cy="32.5" r="20.5" fill="url(#paint0_linear_77_3471)"/>
<path d="M32 22C27.7783 22 24.3438 25.4346 24.3438 29.6562C24.3438 31.0076 24.7008 32.3361 25.3762 33.4982C25.5337 33.7692 25.7097 34.0332 25.8995 34.283L31.6673 42H32.3326L38.1005 34.283C38.2903 34.0332 38.4663 33.7692 38.6238 33.4983C39.2992 32.3361 39.6562 31.0076 39.6562 29.6562C39.6562 25.4346 36.2217 22 32 22ZM32 32.1953C30.6 32.1953 29.4609 31.0563 29.4609 29.6562C29.4609 28.2562 30.6 27.1172 32 27.1172C33.4 27.1172 34.5391 28.2562 34.5391 29.6562C34.5391 31.0563 33.4 32.1953 32 32.1953Z" fill="white"/>
<defs>
<linearGradient id="paint0_linear_77_3471" x1="11" y1="32.5" x2="52" y2="32.5" gradientUnits="userSpaceOnUse">
<stop stop-color="#0CBAF1"/>
<stop offset="1" stop-color="#E95CE9"/>
</linearGradient>
</defs>
</svg>
